<svg width="112" height="120" viewBox="0 0 112 120" fill="none" xmlns="http://www.w3.org/2000/svg">
<path d="M88.3683 -1C82.2566 -0.993109 76.3968 1.43746 72.075 5.75843C67.7533 10.0794 65.322 15.938 65.3154 22.0489V37.4141H46.1052V22.0489C46.074 15.9565 43.6315 10.1243 39.3117 5.82728C34.9919 1.5303 29.1462 -0.881862 23.0526 -0.881862C16.9591 -0.881862 11.1134 1.5303 6.79356 5.82728C2.47376 10.1243 0.0312304 15.9565 0 22.0489V98.8784C0.0312304 104.971 2.47376 110.803 6.79356 115.1C11.1134 119.397 16.9591 121.809 23.0526 121.809C29.1462 121.809 34.9919 119.397 39.3117 115.1C43.6315 110.803 46.074 104.971 46.1052 98.8784V91.1953L38.4209 87.3538V98.8784C38.4209 101.918 37.5196 104.888 35.8308 107.415C34.1421 109.942 31.7418 111.911 28.9335 113.075C26.1252 114.237 23.0351 114.542 20.0538 113.949C17.0726 113.356 14.3342 111.893 12.1849 109.744C10.0356 107.595 8.57185 104.856 7.9789 101.876C7.38602 98.8948 7.69042 95.8053 8.85372 92.9974C10.017 90.1901 11.987 87.7898 14.5144 86.1015C17.0418 84.4133 20.0133 83.5122 23.0529 83.5122H88.3683C91.4081 83.5122 94.3795 84.4133 96.9064 86.1021C99.4339 87.7904 101.404 90.1901 102.567 92.998C103.73 95.8059 104.035 98.8954 103.441 101.876C102.849 104.857 101.385 107.595 99.2353 109.744C97.0863 111.893 94.348 113.356 91.3663 113.949C88.3853 114.542 85.2952 114.237 82.4867 113.075C79.6788 111.911 77.2784 109.942 75.5896 107.415C73.9013 104.888 72.9997 101.918 72.9997 98.8784V91.1953L65.3154 87.3538V98.8784C65.3469 104.971 67.789 110.803 72.1089 115.1C76.4289 119.397 82.2748 121.809 88.3677 121.809C94.4612 121.809 100.307 119.397 104.627 115.1C108.947 110.803 111.389 104.971 111.421 98.8784V22.0489C111.414 15.9381 108.983 10.0796 104.661 5.75868C100.34 1.43769 94.48 -0.992949 88.3683 -1ZM72.9997 22.0489C72.9997 19.0097 73.9007 16.0388 75.5896 13.5118C77.2784 10.9849 79.6782 9.01527 82.4867 7.85215C85.2946 6.68909 88.3847 6.38468 91.3663 6.97751C94.3474 7.57033 97.0857 9.03374 99.2353 11.1827C101.385 13.3316 102.849 16.0696 103.441 19.0503C104.035 22.031 103.73 25.1206 102.567 27.9284C101.404 30.7361 99.4339 33.136 96.907 34.8244C94.3795 36.5129 91.4081 37.4141 88.3683 37.4141H72.9997V22.0489ZM23.0529 6.68297C27.1274 6.68776 31.0336 8.30824 33.9147 11.1889C36.7957 14.0695 38.4163 17.9751 38.4209 22.0489V37.4141H23.0529C21.0266 37.4269 19.0178 37.0388 17.1421 36.2723C15.2663 35.5058 13.5607 34.376 12.1234 32.9479C10.686 31.5198 9.54531 29.8216 8.76695 27.9511C7.98859 26.0805 7.58784 24.0745 7.58784 22.0486C7.58784 20.0225 7.98859 18.0166 8.76695 16.146C9.54531 14.2754 10.686 12.5772 12.1234 11.1491C13.5607 9.72109 15.2663 8.59127 17.1421 7.82478C19.0178 7.05829 21.0266 6.67026 23.0529 6.68297ZM88.3683 75.8279H23.0529C17.3789 75.8231 11.9041 77.9188 7.68431 81.7113V39.2134C11.9042 43.0057 17.379 45.1014 23.0529 45.0964H88.3683C94.0422 45.1013 99.5169 43.0056 103.736 39.2134V81.7113C99.5169 77.9188 94.0422 75.8231 88.3683 75.8279Z" fill="#51839B"/>
</svg>
