<svg width="40" height="40" viewBox="0 0 98 108" fill="none" xmlns="http://www.w3.org/2000/svg">
<path d="M77.1975 0.715485C71.8584 0.721504 66.7393 2.84482 62.9639 6.61957C59.1885 10.3944 57.0646 15.5123 57.0588 20.8507V34.2736H40.277V20.8507C40.2497 15.5284 38.1159 10.4335 34.3422 6.67972C30.5685 2.92592 25.4618 0.818688 20.1385 0.818688C14.8152 0.818688 9.7085 2.92592 5.93477 6.67972C2.16105 10.4335 0.0272825 15.5284 0 20.8507V87.9681C0.0272825 93.2903 2.16105 98.385 5.93477 102.139C9.7085 105.892 14.8152 108 20.1385 108C25.4618 108 30.5685 105.892 34.3422 102.139C38.1159 98.385 40.2497 93.2903 40.277 87.9681V81.2562L33.5641 77.9003V87.9681C33.5641 90.6231 32.7767 93.2183 31.3014 95.4258C29.8261 97.6333 27.7292 99.3536 25.276 100.37C22.8227 101.385 20.1232 101.652 17.5188 101.134C14.9144 100.615 12.5222 99.3372 10.6446 97.4598C8.76695 95.5824 7.48826 93.1903 6.97028 90.5866C6.45234 87.9824 6.71826 85.2835 7.73451 82.8305C8.75076 80.3781 10.4717 78.2812 12.6796 76.8063C14.8876 75.3315 17.4834 74.5444 20.1388 74.5444H77.1975C79.8531 74.5444 82.4488 75.3315 84.6563 76.8069C86.8643 78.2817 88.5851 80.3781 89.6013 82.831C90.6175 85.284 90.8836 87.9829 90.3652 90.5866C89.8473 93.1908 88.5687 95.5824 86.6908 97.4598C84.8134 99.3372 82.4213 100.616 79.8166 101.134C77.2123 101.652 74.5129 101.385 72.0594 100.37C69.6065 99.3536 67.5095 97.6333 66.0342 95.4258C64.5594 93.2183 63.7717 90.6231 63.7717 87.9681V81.2562L57.0588 77.9003V87.9681C57.0863 93.2903 59.2197 98.385 62.9935 102.139C66.7674 105.892 71.8743 108 77.197 108C82.5202 108 87.6271 105.892 91.401 102.139C95.1748 98.385 97.3082 93.2903 97.3357 87.9681V20.8507C97.3299 15.5124 95.206 10.3945 91.4306 6.61979C87.6557 2.84502 82.5366 0.721644 77.1975 0.715485ZM63.7717 20.8507C63.7717 18.1957 64.5588 15.6004 66.0342 13.3929C67.5095 11.1853 69.6059 9.46471 72.0594 8.44862C74.5124 7.43258 77.2118 7.16666 79.8166 7.68454C82.4208 8.20243 84.8129 9.48084 86.6908 11.3581C88.5687 13.2354 89.8473 15.6273 90.3652 18.2312C90.8836 20.8351 90.6175 23.5341 89.6013 25.987C88.5851 28.4398 86.8643 30.5363 84.6568 32.0113C82.4488 33.4863 79.8531 34.2736 77.1975 34.2736H63.7717V20.8507ZM20.1388 7.42724C23.6982 7.43142 27.1106 8.84706 29.6275 11.3635C32.1443 13.88 33.56 17.2919 33.5641 20.8507V34.2736H20.1388C18.3686 34.2847 16.6137 33.9457 14.9751 33.2761C13.3365 32.6065 11.8465 31.6195 10.5909 30.372C9.33519 29.1244 8.33867 27.6409 7.65871 26.0068C6.97874 24.3727 6.62865 22.6203 6.62865 20.8504C6.62865 19.0805 6.97874 17.3281 7.65871 15.694C8.33867 14.0599 9.33519 12.5764 10.5909 11.3288C11.8465 10.0813 13.3365 9.09431 14.9751 8.42471C16.6137 7.75511 18.3686 7.41613 20.1388 7.42724ZM77.1975 67.8315H20.1388C15.182 67.8272 10.3993 69.6581 6.71292 72.9711V35.8455C10.3994 39.1583 15.1821 40.9891 20.1388 40.9848H77.1975C82.1542 40.9891 86.9368 39.1583 90.6228 35.8455V72.9711C86.9368 69.6581 82.1542 67.8272 77.1975 67.8315Z" fill="#51839B"/>
</svg>
